<svg xmlns="http://www.w3.org/2000/svg" xmlns:xlink="http://www.w3.org/1999/xlink" zoomAndPan="magnify" viewBox="0 0 810 809.999993" preserveAspectRatio="xMidYMid meet" version="1.0"><path fill="#daddd8" d="M 219.09375 277.53125 C 219.09375 277.53125 109.59375 261.035156 58.59375 333.015625 C 7.59375 405 27.09375 470.984375 79.59375 503.976562 C 132.09375 536.96875 193.59375 538.46875 211.59375 535.46875 C 229.59375 532.46875 181.59375 578.957031 181.59375 629.945312 C 181.59375 680.933594 162.09375 764.914062 234.09375 787.410156 C 306.09375 809.90625 372.09375 794.90625 402.09375 739.421875 C 432.09375 683.933594 477.09375 632.945312 471.09375 596.953125 C 471.09375 596.953125 564.09375 665.9375 630.09375 655.441406 C 696.09375 644.945312 745.59375 646.441406 769.59375 611.953125 C 793.59375 577.460938 802.59375 527.972656 783.09375 491.980469 C 763.59375 455.988281 726.09375 415.296875 696.09375 406.398438 C 666.09375 397.5 661.59375 387.003906 661.59375 387.003906 C 661.59375 387.003906 727.59375 355.511719 744.09375 298.523438 C 760.59375 241.539062 774.09375 205.546875 756.09375 171.054688 C 738.09375 136.5625 717.09375 94.574219 691.59375 90.074219 C 666.09375 85.574219 601.59375 96.074219 570.09375 115.566406 C 538.59375 135.0625 495.09375 177.054688 490.59375 190.550781 C 490.59375 190.550781 495.09375 132.0625 477.09375 103.570312 C 459.09375 75.078125 412.59375 39.085938 364.59375 30.089844 C 316.59375 21.089844 288.09375 0.09375 252.09375 30.089844 C 216.09375 60.082031 189.09375 105.070312 198.09375 159.058594 C 207.09375 213.046875 178.59375 249.035156 219.09375 277.53125 Z M 219.09375 277.53125 " fill-opacity="1" fill-rule="nonzero"/><path fill="#7e998a" d="M 496.492188 373.308594 C 490.195312 416.496094 476.09375 455.289062 436.09375 479.183594 C 422.394531 487.378906 378.09375 484.382812 365.792969 474.683594 C 348.195312 460.785156 343.695312 435.394531 351.195312 409.199219 C 355.492188 394.402344 355.292969 378.304688 357.894531 363.011719 C 360.492188 347.3125 368.992188 335.515625 383.59375 328.617188 C 387.792969 326.617188 392.992188 324.917969 395.59375 321.519531 C 412.792969 299.023438 434.195312 296.226562 458.394531 307.621094 C 482.292969 318.621094 496.292969 343.515625 496.492188 373.308594 Z M 496.492188 373.308594 " fill-opacity="1" fill-rule="nonzero"/></svg>