<svg xmlns="http://www.w3.org/2000/svg" xmlns:xlink="http://www.w3.org/1999/xlink" width="500" zoomAndPan="magnify" viewBox="0 0 375 374.999991" height="500" preserveAspectRatio="xMidYMid meet" version="1.0"><defs><clipPath id="id1"><path d="M 2.332031 5 L 372.832031 5 L 372.832031 368 L 2.332031 368 Z M 2.332031 5 " clip-rule="nonzero"/></clipPath></defs><g clip-path="url(#id1)"><path fill="#272525" d="M 187.582031 5.804688 C 85.230469 5.804688 2.332031 88.707031 2.332031 191.054688 C 2.332031 273.03125 55.359375 342.265625 128.996094 366.8125 C 138.261719 368.433594 141.734375 362.875 141.734375 358.011719 C 141.734375 353.613281 141.503906 339.023438 141.503906 323.511719 C 94.957031 332.078125 82.917969 312.164062 79.210938 301.742188 C 77.128906 296.417969 68.097656 279.976562 60.222656 275.578125 C 53.738281 272.101562 44.476562 263.535156 59.992188 263.304688 C 74.582031 263.074219 85 276.734375 88.472656 282.292969 C 105.148438 310.3125 131.777344 302.4375 142.429688 297.574219 C 144.050781 285.535156 148.910156 277.429688 154.238281 272.796875 C 113.019531 268.167969 69.949219 252.1875 69.949219 181.332031 C 69.949219 161.183594 77.128906 144.511719 88.9375 131.542969 C 87.085938 126.914062 80.601562 107.925781 90.789062 82.453125 C 90.789062 82.453125 106.304688 77.589844 141.734375 101.441406 C 156.554688 97.273438 172.300781 95.191406 188.046875 95.191406 C 203.792969 95.191406 219.539062 97.273438 234.359375 101.441406 C 269.789062 77.359375 285.300781 82.453125 285.300781 82.453125 C 295.492188 107.925781 289.007812 126.914062 287.15625 131.542969 C 298.964844 144.511719 306.144531 160.953125 306.144531 181.332031 C 306.144531 252.421875 262.839844 268.167969 221.621094 272.796875 C 228.339844 278.585938 234.128906 289.703125 234.128906 307.070312 C 234.128906 331.847656 233.894531 351.761719 233.894531 358.011719 C 233.894531 362.875 237.367188 368.664062 246.632812 366.8125 C 248.910156 366.042969 251.175781 365.226562 253.425781 364.371094 C 255.675781 363.511719 257.90625 362.609375 260.121094 361.664062 C 262.335938 360.71875 264.527344 359.730469 266.703125 358.703125 C 268.878906 357.671875 271.035156 356.597656 273.167969 355.484375 C 275.300781 354.371094 277.414062 353.214844 279.5 352.019531 C 281.589844 350.824219 283.65625 349.585938 285.695312 348.308594 C 287.738281 347.035156 289.75 345.71875 291.742188 344.363281 C 293.730469 343.007812 295.691406 341.613281 297.628906 340.183594 C 299.5625 338.75 301.46875 337.285156 303.347656 335.777344 C 305.226562 334.273438 307.074219 332.730469 308.890625 331.152344 C 310.710938 329.578125 312.496094 327.964844 314.253906 326.316406 C 316.007812 324.671875 317.730469 322.992188 319.417969 321.277344 C 321.109375 319.5625 322.765625 317.816406 324.386719 316.039062 C 326.007812 314.261719 327.597656 312.453125 329.148438 310.613281 C 330.699219 308.773438 332.214844 306.902344 333.691406 305.003906 C 335.171875 303.105469 336.613281 301.179688 338.015625 299.222656 C 339.421875 297.269531 340.785156 295.285156 342.113281 293.277344 C 343.4375 291.269531 344.726562 289.238281 345.972656 287.179688 C 347.21875 285.121094 348.425781 283.039062 349.59375 280.933594 C 350.761719 278.832031 351.886719 276.703125 352.96875 274.554688 C 354.050781 272.40625 355.09375 270.238281 356.09375 268.046875 C 357.089844 265.859375 358.046875 263.652344 358.960938 261.425781 C 359.875 259.199219 360.742188 256.953125 361.570312 254.695312 C 362.394531 252.433594 363.175781 250.160156 363.914062 247.867188 C 364.652344 245.578125 365.34375 243.273438 365.992188 240.957031 C 366.640625 238.640625 367.242188 236.308594 367.796875 233.96875 C 368.355469 231.628906 368.867188 229.277344 369.332031 226.917969 C 369.796875 224.554688 370.214844 222.1875 370.589844 219.808594 C 370.964844 217.433594 371.289062 215.050781 371.570312 212.660156 C 371.851562 210.269531 372.085938 207.875 372.269531 205.476562 C 372.457031 203.078125 372.597656 200.675781 372.691406 198.273438 C 372.785156 195.867188 372.832031 193.460938 372.832031 191.054688 C 372.832031 88.707031 289.933594 5.804688 187.582031 5.804688 Z M 187.582031 5.804688 " fill-opacity="1" fill-rule="nonzero"/></g></svg>